<svg xmlns="http://www.w3.org/2000/svg" width="1024" height="1024">
    <rect width="1024" height="1024" fill="#24292e"/>
    <path d="M512 40c-266.776 0-483.104 216.28-483.104 483.104 0 213.456 138.424 394.536 330.4 458.24 24.136 4.48 33-10.48 33-20.84 0-11.52-.448-49.576-.082-98.992-134.4 29.224-162.72-57-162.72-57-21.976-55.84-54.44-70.688-54.44-70.688-43.84-29.984 3.304-29.36 3.304-29.36 48.504 3.4 74.056 49.784 74.056 49.784 43.088 73.84 113.016 52.496 140.584 40.16 4.336-31.224 8.856-56.544 8.856-56.544-107.304-21.52-219.112-53.64-219.112-238.744 0-52.744 18.84-95.84 49.784-129.68-5.024-12.16-10.76-61.296 4.672-127.84 0 0 40.56-12.984 132.88 49.52 38.536-10.704 79.864-16.056 120.928-16.24 41.056.184 82.416 5.536 121.024 16.24 92.208-62.504 132.72-49.52 132.72-49.52 26.296 66.544 9.76 115.68 4.736 127.84 30.976 33.84 49.72 76.936 49.72 129.68 0 185.552-113.016 226.4-220.592 238.344 17.336 14.992 40.776 44.4 40.776 89.488 0 64.64-.056 116.664-.056 132.576 0 12.856 8.704 27.92 33.184 23.176 191.84-63.952 330.104-244.976 330.104-458.304C995.104 256.28 778.776 40 512 40z" fill="#fff" fill-rule="evenodd"/>
  </svg>